<svg width="130" height="230" viewBox="0 0 130 230" fill="none" xmlns="http://www.w3.org/2000/svg">
<g clip-path="url(#clip0_88_63)">
<path d="M83.292 29.5318C89.203 29.5318 94.0393 24.6993 94.0393 18.793C94.0393 12.8866 89.203 8.05414 83.292 8.05414C77.3809 8.05414 72.5446 12.8866 72.5446 18.793C72.5446 24.6993 77.3809 29.5318 83.292 29.5318ZM26.8684 64.433C11.8221 64.433 0 76.2457 0 91.2801C0 106.314 11.8221 118.127 26.8684 118.127C41.9147 118.127 53.7368 106.314 53.7368 91.2801C53.7368 76.2457 41.9147 64.433 26.8684 64.433ZM26.8684 110.073C16.6584 110.073 8.06052 101.482 8.06052 91.2801C8.06052 81.0782 16.6584 72.4871 26.8684 72.4871C37.0784 72.4871 45.6763 81.0782 45.6763 91.2801C45.6763 101.482 37.0784 110.073 26.8684 110.073ZM58.0357 56.3789L70.9325 43.4923L75.2315 47.7878C82.2173 54.7681 91.3525 59.0636 102.637 59.0636V48.3248C94.5767 48.3248 88.1283 45.1031 83.292 40.2706L73.082 30.0687C70.3952 27.921 67.7083 26.8471 64.4841 26.8471C61.2599 26.8471 58.5731 27.921 56.961 30.0687L41.9147 45.1031C39.7652 47.2509 38.6905 49.9356 38.6905 52.6203C38.6905 55.8419 39.7652 58.5266 41.9147 60.1375L59.1104 75.1718V102.019H69.8578V68.7285L58.0357 56.3789ZM102.1 64.433C87.0536 64.433 75.2315 76.2457 75.2315 91.2801C75.2315 106.314 87.0536 118.127 102.1 118.127C117.146 118.127 128.968 106.314 128.968 91.2801C128.968 76.2457 117.146 64.433 102.1 64.433ZM102.1 110.073C91.8899 110.073 83.292 101.482 83.292 91.2801C83.292 81.0782 91.8899 72.4871 102.1 72.4871C112.31 72.4871 120.908 81.0782 120.908 91.2801C120.908 101.482 112.31 110.073 102.1 110.073Z" fill="black"/>
</g>
<line x1="9.72223" y1="103.093" x2="9.72223" y2="154.639" stroke="black" stroke-width="5"/>
<line x1="122.183" y1="103.093" x2="122.183" y2="154.639" stroke="black" stroke-width="5"/>
<line x1="45.8333" y1="103.093" x2="45.8333" y2="180.412" stroke="black" stroke-width="5"/>
<line x1="82.9762" y1="103.093" x2="82.9762" y2="180.412" stroke="black" stroke-width="5"/>
<line x1="64.5" y1="100" x2="64.5" y2="188" stroke="black" stroke-width="11"/>
<line x1="28.2936" y1="114.433" x2="28.2936" y2="165.979" stroke="black" stroke-width="5"/>
<line x1="103.611" y1="114.433" x2="103.611" y2="165.979" stroke="black" stroke-width="5"/>
<path d="M15.0397 160.309C15.0397 163.197 12.6964 165.541 9.8016 165.541C6.90681 165.541 4.56351 163.197 4.56351 160.309C4.56351 157.422 6.90681 155.077 9.8016 155.077C12.6964 155.077 15.0397 157.422 15.0397 160.309Z" stroke="black" stroke-width="5"/>
<path d="M33.6111 172.68C33.6111 175.568 31.2678 177.912 28.373 177.912C25.4782 177.912 23.1349 175.568 23.1349 172.68C23.1349 169.793 25.4782 167.448 28.373 167.448C31.2678 167.448 33.6111 169.793 33.6111 172.68Z" stroke="black" stroke-width="5"/>
<path d="M51.1508 185.052C51.1508 187.939 48.8075 190.283 45.9127 190.283C43.0179 190.283 40.6746 187.939 40.6746 185.052C40.6746 182.164 43.0179 179.82 45.9127 179.82C48.8075 179.82 51.1508 182.164 51.1508 185.052Z" stroke="black" stroke-width="5"/>
<path d="M69.7222 192.268C69.7222 195.156 67.3789 197.5 64.4841 197.5C61.5893 197.5 59.246 195.156 59.246 192.268C59.246 189.38 61.5893 187.036 64.4841 187.036C67.3789 187.036 69.7222 189.38 69.7222 192.268Z" stroke="black" stroke-width="5"/>
<path d="M88.2936 185.052C88.2936 187.939 85.9503 190.283 83.0555 190.283C80.1607 190.283 77.8174 187.939 77.8174 185.052C77.8174 182.164 80.1607 179.82 83.0555 179.82C85.9503 179.82 88.2936 182.164 88.2936 185.052Z" stroke="black" stroke-width="5"/>
<path d="M108.929 172.68C108.929 175.568 106.585 177.912 103.69 177.912C100.796 177.912 98.4524 175.568 98.4524 172.68C98.4524 169.793 100.796 167.448 103.69 167.448C106.585 167.448 108.929 169.793 108.929 172.68Z" stroke="black" stroke-width="5"/>
<path d="M127.5 160.309C127.5 163.197 125.157 165.541 122.262 165.541C119.367 165.541 117.024 163.197 117.024 160.309C117.024 157.422 119.367 155.077 122.262 155.077C125.157 155.077 127.5 157.422 127.5 160.309Z" stroke="black" stroke-width="5"/>
<path d="M9.84517 224V206.545H16.8338C18.1179 206.545 19.1889 206.736 20.0469 207.116C20.9048 207.497 21.5497 208.026 21.9815 208.702C22.4134 209.372 22.6293 210.145 22.6293 211.02C22.6293 211.702 22.4929 212.301 22.2202 212.818C21.9474 213.33 21.5724 213.75 21.0952 214.08C20.6236 214.403 20.0838 214.634 19.4759 214.77V214.94C20.1406 214.969 20.7628 215.156 21.3423 215.503C21.9276 215.849 22.402 216.335 22.7656 216.96C23.1293 217.58 23.3111 218.318 23.3111 219.176C23.3111 220.102 23.081 220.929 22.6207 221.656C22.1662 222.378 21.4929 222.949 20.6009 223.369C19.7088 223.79 18.6094 224 17.3026 224H9.84517ZM13.5355 220.983H16.544C17.5724 220.983 18.3224 220.787 18.794 220.395C19.2656 219.997 19.5014 219.469 19.5014 218.81C19.5014 218.327 19.3849 217.901 19.152 217.531C18.919 217.162 18.5866 216.872 18.1548 216.662C17.7287 216.452 17.2202 216.347 16.6293 216.347H13.5355V220.983ZM13.5355 213.849H16.2713C16.777 213.849 17.2259 213.761 17.6179 213.585C18.0156 213.403 18.3281 213.148 18.5554 212.818C18.7884 212.489 18.9048 212.094 18.9048 211.634C18.9048 211.003 18.6804 210.494 18.2315 210.108C17.7884 209.722 17.1577 209.528 16.3395 209.528H13.5355V213.849ZM25.6442 224V210.909H29.2749V224H25.6442ZM27.468 209.222C26.9283 209.222 26.4652 209.043 26.0788 208.685C25.6982 208.321 25.5078 207.886 25.5078 207.381C25.5078 206.881 25.6982 206.452 26.0788 206.094C26.4652 205.73 26.9283 205.548 27.468 205.548C28.0078 205.548 28.468 205.73 28.8487 206.094C29.2351 206.452 29.4283 206.881 29.4283 207.381C29.4283 207.886 29.2351 208.321 28.8487 208.685C28.468 209.043 28.0078 209.222 27.468 209.222ZM35.473 220.233L35.4815 215.878H36.0099L40.2031 210.909H44.3707L38.7372 217.489H37.8764L35.473 220.233ZM32.1832 224V206.545H35.8139V224H32.1832ZM40.3651 224L36.5128 218.298L38.9332 215.733L44.6179 224H40.3651ZM51.5788 224.256C50.2322 224.256 49.0732 223.983 48.1016 223.438C47.1357 222.886 46.3913 222.108 45.8686 221.102C45.3459 220.091 45.0845 218.895 45.0845 217.514C45.0845 216.168 45.3459 214.986 45.8686 213.969C46.3913 212.952 47.1271 212.159 48.076 211.591C49.0305 211.023 50.1499 210.739 51.4339 210.739C52.2976 210.739 53.1016 210.878 53.8459 211.156C54.5959 211.429 55.2493 211.841 55.8061 212.392C56.3686 212.943 56.8061 213.636 57.1186 214.472C57.4311 215.301 57.5874 216.273 57.5874 217.386V218.384H46.5334V216.134H54.1697C54.1697 215.611 54.0561 215.148 53.8288 214.744C53.6016 214.341 53.2862 214.026 52.8828 213.798C52.4851 213.565 52.022 213.449 51.4936 213.449C50.9425 213.449 50.4538 213.577 50.0277 213.832C49.6072 214.082 49.2777 214.42 49.0391 214.847C48.8004 215.267 48.6783 215.736 48.6726 216.253V218.392C48.6726 219.04 48.7919 219.599 49.0305 220.071C49.2749 220.543 49.6186 220.906 50.0618 221.162C50.505 221.418 51.0305 221.545 51.6385 221.545C52.0419 221.545 52.4112 221.489 52.7464 221.375C53.0817 221.261 53.3686 221.091 53.6072 220.864C53.8459 220.636 54.0277 220.358 54.1527 220.028L57.5107 220.25C57.3402 221.057 56.9908 221.761 56.4624 222.364C55.9396 222.96 55.2635 223.426 54.4339 223.761C53.6101 224.091 52.6584 224.256 51.5788 224.256ZM65.5795 224V206.545H72.5682C73.8523 206.545 74.9233 206.736 75.7812 207.116C76.6392 207.497 77.2841 208.026 77.7159 208.702C78.1477 209.372 78.3636 210.145 78.3636 211.02C78.3636 211.702 78.2273 212.301 77.9545 212.818C77.6818 213.33 77.3068 213.75 76.8295 214.08C76.358 214.403 75.8182 214.634 75.2102 214.77V214.94C75.875 214.969 76.4972 215.156 77.0767 215.503C77.6619 215.849 78.1364 216.335 78.5 216.96C78.8636 217.58 79.0455 218.318 79.0455 219.176C79.0455 220.102 78.8153 220.929 78.3551 221.656C77.9006 222.378 77.2273 222.949 76.3352 223.369C75.4432 223.79 74.3438 224 73.0369 224H65.5795ZM69.2699 220.983H72.2784C73.3068 220.983 74.0568 220.787 74.5284 220.395C75 219.997 75.2358 219.469 75.2358 218.81C75.2358 218.327 75.1193 217.901 74.8864 217.531C74.6534 217.162 74.321 216.872 73.8892 216.662C73.4631 216.452 72.9545 216.347 72.3636 216.347H69.2699V220.983ZM69.2699 213.849H72.0057C72.5114 213.849 72.9602 213.761 73.3523 213.585C73.75 213.403 74.0625 213.148 74.2898 212.818C74.5227 212.489 74.6392 212.094 74.6392 211.634C74.6392 211.003 74.4148 210.494 73.9659 210.108C73.5227 209.722 72.892 209.528 72.0739 209.528H69.2699V213.849ZM85.1115 224.247C84.2763 224.247 83.532 224.102 82.8786 223.812C82.2251 223.517 81.7081 223.082 81.3274 222.509C80.9524 221.929 80.7649 221.207 80.7649 220.344C80.7649 219.616 80.8984 219.006 81.1655 218.511C81.4325 218.017 81.7962 217.619 82.2564 217.318C82.7166 217.017 83.2393 216.79 83.8246 216.636C84.4155 216.483 85.0348 216.375 85.6825 216.312C86.4439 216.233 87.0575 216.159 87.5234 216.091C87.9893 216.017 88.3274 215.909 88.5376 215.767C88.7479 215.625 88.853 215.415 88.853 215.136V215.085C88.853 214.545 88.6825 214.128 88.3416 213.832C88.0064 213.537 87.5291 213.389 86.9098 213.389C86.2564 213.389 85.7365 213.534 85.3501 213.824C84.9638 214.108 84.7081 214.466 84.5831 214.898L81.2251 214.625C81.3956 213.83 81.7308 213.142 82.2308 212.562C82.7308 211.977 83.3757 211.528 84.1655 211.216C84.9609 210.898 85.8814 210.739 86.9268 210.739C87.6541 210.739 88.3501 210.824 89.0149 210.994C89.6854 211.165 90.2791 211.429 90.7962 211.787C91.3189 212.145 91.7308 212.605 92.032 213.168C92.3331 213.724 92.4837 214.392 92.4837 215.17V224H89.0405V222.185H88.9382C88.728 222.594 88.4467 222.955 88.0945 223.267C87.7422 223.574 87.3189 223.815 86.8246 223.991C86.3303 224.162 85.7592 224.247 85.1115 224.247ZM86.1513 221.741C86.6854 221.741 87.157 221.636 87.5661 221.426C87.9751 221.21 88.2962 220.92 88.5291 220.557C88.7621 220.193 88.8786 219.781 88.8786 219.321V217.932C88.7649 218.006 88.6087 218.074 88.4098 218.136C88.2166 218.193 87.9979 218.247 87.7536 218.298C87.5092 218.344 87.2649 218.386 87.0206 218.426C86.7763 218.46 86.5547 218.491 86.3558 218.52C85.9297 218.582 85.5575 218.682 85.2393 218.818C84.9212 218.955 84.674 219.139 84.4979 219.372C84.3217 219.599 84.2337 219.884 84.2337 220.224C84.2337 220.719 84.4126 221.097 84.7706 221.358C85.1342 221.614 85.5945 221.741 86.1513 221.741ZM106.192 214.642L102.869 214.847C102.812 214.562 102.69 214.307 102.502 214.08C102.315 213.847 102.067 213.662 101.761 213.526C101.46 213.384 101.099 213.312 100.678 213.312C100.116 213.312 99.6413 213.432 99.255 213.67C98.8686 213.903 98.6754 214.216 98.6754 214.608C98.6754 214.92 98.8004 215.185 99.0504 215.401C99.3004 215.616 99.7294 215.79 100.337 215.92L102.707 216.398C103.979 216.659 104.928 217.08 105.553 217.659C106.178 218.239 106.491 219 106.491 219.943C106.491 220.801 106.238 221.554 105.732 222.202C105.232 222.849 104.545 223.355 103.67 223.719C102.8 224.077 101.798 224.256 100.661 224.256C98.9283 224.256 97.5476 223.895 96.5192 223.173C95.4964 222.446 94.897 221.457 94.7209 220.207L98.2919 220.02C98.3999 220.548 98.6612 220.952 99.076 221.23C99.4908 221.503 100.022 221.639 100.67 221.639C101.306 221.639 101.817 221.517 102.204 221.273C102.596 221.023 102.795 220.702 102.8 220.31C102.795 219.98 102.656 219.71 102.383 219.5C102.11 219.284 101.69 219.119 101.121 219.006L98.8544 218.554C97.576 218.298 96.6243 217.855 95.9993 217.224C95.38 216.594 95.0703 215.79 95.0703 214.812C95.0703 213.972 95.2976 213.247 95.7521 212.639C96.2124 212.031 96.8572 211.562 97.6868 211.233C98.522 210.903 99.4993 210.739 100.619 210.739C102.272 210.739 103.573 211.088 104.522 211.787C105.477 212.486 106.033 213.437 106.192 214.642ZM114.743 224.256C113.396 224.256 112.237 223.983 111.266 223.438C110.3 222.886 109.555 222.108 109.033 221.102C108.51 220.091 108.249 218.895 108.249 217.514C108.249 216.168 108.51 214.986 109.033 213.969C109.555 212.952 110.291 212.159 111.24 211.591C112.195 211.023 113.314 210.739 114.598 210.739C115.462 210.739 116.266 210.878 117.01 211.156C117.76 211.429 118.413 211.841 118.97 212.392C119.533 212.943 119.97 213.636 120.283 214.472C120.595 215.301 120.751 216.273 120.751 217.386V218.384H109.697V216.134H117.334C117.334 215.611 117.22 215.148 116.993 214.744C116.766 214.341 116.45 214.026 116.047 213.798C115.649 213.565 115.186 213.449 114.658 213.449C114.107 213.449 113.618 213.577 113.192 213.832C112.771 214.082 112.442 214.42 112.203 214.847C111.964 215.267 111.842 215.736 111.837 216.253V218.392C111.837 219.04 111.956 219.599 112.195 220.071C112.439 220.543 112.783 220.906 113.226 221.162C113.669 221.418 114.195 221.545 114.803 221.545C115.206 221.545 115.575 221.489 115.911 221.375C116.246 221.261 116.533 221.091 116.771 220.864C117.01 220.636 117.192 220.358 117.317 220.028L120.675 220.25C120.504 221.057 120.155 221.761 119.626 222.364C119.104 222.96 118.428 223.426 117.598 223.761C116.774 224.091 115.822 224.256 114.743 224.256Z" fill="black"/>
<defs>
<clipPath id="clip0_88_63">
<rect width="128.968" height="128.866" fill="white"/>
</clipPath>
</defs>
</svg>
